<svg width="103" height="18" viewBox="0 0 103 18" fill="none" xmlns="http://www.w3.org/2000/svg">
<path d="M0.564 17V0.899999H6.659C7.96233 0.899999 9.03567 1.12233 9.879 1.567C10.7377 2.01167 11.374 2.60967 11.788 3.361C12.2173 4.097 12.432 4.925 12.432 5.845C12.432 6.70367 12.225 7.50867 11.811 8.26C11.4123 9.01133 10.7837 9.617 9.925 10.077C9.06633 10.5217 7.97 10.744 6.636 10.744H3.784V17H0.564ZM8.89 17L5.601 9.939H9.097L12.57 17H8.89ZM3.784 8.398H6.475C7.37967 8.398 8.04667 8.17567 8.476 7.731C8.92067 7.28633 9.143 6.696 9.143 5.96C9.143 5.23933 8.92833 4.66433 8.499 4.235C8.06967 3.80567 7.38733 3.591 6.452 3.591H3.784V8.398ZM18.9759 17.276C17.8719 17.276 16.8752 17.023 15.9859 16.517C15.0965 15.9957 14.3912 15.275 13.8699 14.355C13.3639 13.435 13.1109 12.3923 13.1109 11.227C13.1109 10.031 13.3639 8.973 13.8699 8.053C14.3912 7.133 15.0965 6.42 15.9859 5.914C16.8752 5.39267 17.8795 5.132 18.9989 5.132C20.1182 5.132 21.1225 5.39267 22.0119 5.914C22.9012 6.42 23.5989 7.133 24.1049 8.053C24.6262 8.95767 24.8869 10.008 24.8869 11.204C24.8869 12.4 24.6262 13.458 24.1049 14.378C23.5835 15.2827 22.8782 15.9957 21.9889 16.517C21.1149 17.023 20.1105 17.276 18.9759 17.276ZM18.9759 14.493C19.4819 14.493 19.9265 14.3703 20.3099 14.125C20.6932 13.8797 20.9999 13.5117 21.2299 13.021C21.4752 12.5303 21.5979 11.9247 21.5979 11.204C21.5979 10.4833 21.4829 9.87767 21.2529 9.387C21.0229 8.89633 20.7085 8.52833 20.3099 8.283C19.9265 8.03767 19.4895 7.915 18.9989 7.915C18.5235 7.915 18.0865 8.03767 17.6879 8.283C17.2892 8.52833 16.9749 8.89633 16.7449 9.387C16.5149 9.87767 16.3999 10.4833 16.3999 11.204C16.3999 11.9247 16.5149 12.5303 16.7449 13.021C16.9749 13.5117 17.2815 13.8797 17.6649 14.125C18.0635 14.3703 18.5005 14.493 18.9759 14.493ZM30.9659 17.276C30.0305 17.276 29.2255 17.0843 28.5509 16.701C27.8915 16.3023 27.3855 15.7197 27.0329 14.953C26.6802 14.1863 26.5039 13.2433 26.5039 12.124V5.408H29.7239V11.802C29.7239 12.7067 29.9079 13.3967 30.2759 13.872C30.6592 14.332 31.2495 14.562 32.0469 14.562C32.5529 14.562 33.0052 14.447 33.4039 14.217C33.8025 13.987 34.1092 13.6573 34.3239 13.228C34.5539 12.7833 34.6689 12.239 34.6689 11.595V5.408H37.8889V17H35.0599L34.8069 15.137C34.4695 15.781 33.9712 16.3023 33.3119 16.701C32.6679 17.0843 31.8859 17.276 30.9659 17.276ZM45.297 17C44.469 17 43.7407 16.8697 43.112 16.609C42.4987 16.3483 42.0234 15.919 41.686 15.321C41.3487 14.723 41.18 13.9103 41.18 12.883V8.099H39.179V5.408H41.18L41.525 2.211H44.4V5.408H47.413V8.099H44.4V12.906C44.4 13.412 44.5074 13.7647 44.722 13.964C44.952 14.1633 45.3354 14.263 45.872 14.263H47.39V17H45.297ZM49.1961 17V5.408H52.4161V17H49.1961ZM50.8061 3.913C50.2234 3.913 49.7481 3.74433 49.3801 3.407C49.0121 3.05433 48.8281 2.625 48.8281 2.119C48.8281 1.59767 49.0121 1.16833 49.3801 0.831C49.7481 0.493666 50.2234 0.324999 50.8061 0.324999C51.3887 0.324999 51.8641 0.493666 52.2321 0.831C52.6001 1.16833 52.7841 1.59767 52.7841 2.119C52.7841 2.625 52.6001 3.05433 52.2321 3.407C51.8641 3.74433 51.3887 3.913 50.8061 3.913ZM54.586 17V5.408H57.415L57.645 7.294C57.9976 6.65 58.496 6.12867 59.14 5.73C59.7993 5.33133 60.589 5.132 61.509 5.132C62.4596 5.132 63.2646 5.339 63.924 5.753C64.5833 6.15167 65.0816 6.73433 65.419 7.501C65.7716 8.26767 65.948 9.21067 65.948 10.33V17H62.751V10.629C62.751 9.73967 62.5593 9.05733 62.176 8.582C61.808 8.09133 61.2176 7.846 60.405 7.846C59.9143 7.846 59.4696 7.96867 59.071 8.214C58.6723 8.444 58.358 8.78133 58.128 9.226C57.9133 9.65533 57.806 10.1843 57.806 10.813V17H54.586ZM73.5401 17.276C72.3748 17.276 71.3398 17.0307 70.4351 16.54C69.5458 16.034 68.8481 15.3363 68.3421 14.447C67.8361 13.5423 67.5831 12.4997 67.5831 11.319C67.5831 10.123 67.8285 9.065 68.3191 8.145C68.8251 7.20967 69.5228 6.47367 70.4121 5.937C71.3168 5.40033 72.3671 5.132 73.5631 5.132C74.7131 5.132 75.7175 5.385 76.5761 5.891C77.4501 6.397 78.1248 7.07933 78.6001 7.938C79.0908 8.79667 79.3361 9.78567 79.3361 10.905C79.3361 11.0583 79.3285 11.227 79.3131 11.411C79.3131 11.595 79.2978 11.7943 79.2671 12.009H69.8831V10.054H76.0701C76.0241 9.34867 75.7635 8.789 75.2881 8.375C74.8281 7.94567 74.2531 7.731 73.5631 7.731C73.0418 7.731 72.5665 7.85367 72.1371 8.099C71.7078 8.34433 71.3705 8.70467 71.1251 9.18C70.8798 9.65533 70.7571 10.261 70.7571 10.997V11.664C70.7571 12.262 70.8721 12.791 71.1021 13.251C71.3321 13.6957 71.6541 14.0407 72.0681 14.286C72.4821 14.5313 72.9651 14.654 73.5171 14.654C74.0691 14.654 74.5215 14.539 74.8741 14.309C75.2421 14.079 75.5181 13.78 75.7021 13.412H78.9911C78.7765 14.1327 78.4085 14.7843 77.8871 15.367C77.3811 15.9497 76.7601 16.4173 76.0241 16.77C75.2881 17.1073 74.4601 17.276 73.5401 17.276ZM94.1686 17L97.6646 0.255999H100.678L97.1816 17H94.1686ZM87.0156 17L90.5116 0.255999H93.5476L90.0516 17H87.0156ZM84.5546 13.113V10.215H101.506V13.113H84.5546ZM85.8196 6.949V4.074H102.794V6.949H85.8196Z" fill="#57AEFF"/>
</svg>
